<svg xmlns="http://www.w3.org/2000/svg" width="22.212" height="22.862" viewBox="0 0 22.212 22.862">
    <defs>
        <clipPath id="dpk3gsg1ha">
            <path data-name="사각형 27243" style="fill:#3d78ff" d="M0 0h22.212v22.862H0z"/>
        </clipPath>
    </defs>
    <g data-name="그룹 68188">
        <g data-name="그룹 68187" style="clip-path:url(#dpk3gsg1ha)">
            <path data-name="패스 27128" d="M4.987 10.659c.828-.066 1.576-.129 2.326-.185.567-.042 1.135-.109 1.7-.105a1.7 1.7 0 0 0 1.291-.562c1.92-1.878 3.832-3.764 5.815-5.591 1.2-1.1 2.506-2.111 3.788-3.138a8.451 8.451 0 0 1 1.311-.817A4.634 4.634 0 0 1 22.05 0l.162.14a3.516 3.516 0 0 1-.364.79 10.894 10.894 0 0 1-.975 1.015q-3.992 3.9-7.987 7.792c-.186.181-.34.388-.565.648a8.507 8.507 0 0 0 .883.178 1.37 1.37 0 0 1 1.361 1.1 26.824 26.824 0 0 1 .507 2.966c.184 1.852.292 3.71.441 5.681-.059-.044 0 .024.081.057.413.172.678.423.577.851a.941.941 0 0 1-.884.654c-.652.1-1.309.195-1.969.232-2.587.147-5.176.255-7.762.41-1.229.074-2.451.225-3.678.328a4.667 4.667 0 0 1-.942 0 .721.721 0 0 1-.688-.68 33.853 33.853 0 0 1 .2-9.142c.029-.276.076-.552.078-.828.005-.725.172-.93.983-1.062.648-.106 1.3-.176 2-.269.006-.392.022-.743.014-1.094-.035-1.584-.079-3.168-.112-4.753a4.542 4.542 0 0 1 .051-.665c.033-.261.126-.551.477-.5.164.023.336.289.409.473a2.441 2.441 0 0 1 .068.661q.243 2.577.489 5.154c.013.136.043.271.085.529m7.656 1.534c-1.439-.474-1.719-.422-2.559.522-.874.978-1.721 1.978-2.587 2.966a6.428 6.428 0 0 1-.872.872 1.239 1.239 0 0 1-2.068-.509 17.8 17.8 0 0 1-.488-1.866c-.127-.535-.231-1.075-.353-1.649l-2.05.142L2 21.136l10.731-.9a41.93 41.93 0 0 0-.081-8.034m-4.611-.09-2.827.254.6 2.443 2.223-2.7" style="fill:#3d78ff"/>
        </g>
    </g>
</svg>
