<svg xmlns="http://www.w3.org/2000/svg" width="30" height="30" viewBox="0 0 30 30">
    <defs>
        <clipPath id="m6mn7retea">
            <path data-name="사각형 27234" style="fill:#3d78ff" d="M0 0h26.52v24.688H0z"/>
        </clipPath>
    </defs>
    <g data-name="그룹 68184">
        <path data-name="사각형 27238" style="fill:#fff" d="M0 0h30v30H0z"/>
        <g data-name="그룹 68182">
            <g data-name="그룹 68181" style="clip-path:url(#m6mn7retea)" transform="translate(1.866 2.742)">
                <path data-name="패스 27120" d="M13.855 84.866c.652-.208 1.2-.392 1.754-.556.618-.183 1.235-.37 1.862-.514 1.608-.368 2.417.444 1.9 2.013a13.668 13.668 0 0 1-1.481 3.24 2.857 2.857 0 0 0-.156 3.29c.4.728.667 1.535 1.02 2.294a1.587 1.587 0 0 1-.048 1.895 1.638 1.638 0 0 1-1.878.341c-.613-.2-1.215-.428-1.823-.64-.391-.137-.783-.268-1.237-.423-.291.392-.551.752-.82 1.105q-1.115 1.46-2.238 2.914a4.519 4.519 0 0 1-.442.512 1.311 1.311 0 0 1-2.279-.405 6.342 6.342 0 0 1-.521-1.849 52.567 52.567 0 0 1-.319-4.044 1.039 1.039 0 0 0-.749-1.073 24.615 24.615 0 0 1-2.631-1.214 1.232 1.232 0 0 0-1.711.284 1.507 1.507 0 0 1-1.225.445.663.663 0 0 1-.533-.312.813.813 0 0 1 .105-.692 7.622 7.622 0 0 1 1.054-.82c-.225-.171-.416-.314-.6-.461a4.844 4.844 0 0 1-.521-.429.861.861 0 0 1-.2-1.135.8.8 0 0 1 1.026-.3 19.917 19.917 0 0 1 1.985.757 1.414 1.414 0 0 0 1.447-.07 16.538 16.538 0 0 1 1.812-.912.845.845 0 0 0 .581-.968c-.121-1.348-.212-2.7-.307-4.048a6.743 6.743 0 0 1-.027-1.061 1.574 1.574 0 0 1 2.011-1.516 4.482 4.482 0 0 1 2.223 1.114c.778.72 1.493 1.508 2.219 2.282.262.279.476.6.747.952m-.355 8.211c.527-.771 1-1.422 1.422-2.1a.887.887 0 0 0 .13-.7c-.558-1.186-1.166-2.349-1.807-3.614-1.526.673-2.938 1.283-4.334 1.926a.7.7 0 0 0-.346.5c-.019.729.026 1.459.048 2.191l4.887 1.797m-1.2-7.637c-1.223-1.949-2.734-3.2-3.913-3.256l.213 4.852 3.7-1.6M9.451 98.265c.86-1.075 1.714-2 2.486-3.126l-3.112-1.15a9.946 9.946 0 0 0 .626 4.276m6.749-9.521a6.271 6.271 0 0 0 1.616-3.613 14.6 14.6 0 0 0-3.095 1.044l1.479 2.569m.141 5.364.184-.146-.545-1.562-.78 1.272 1.142.436m-10.646-4 1.37.521-.106-1.148-1.26.628" transform="translate(0 -76.145)" style="fill:#3d78ff"/>
                <path data-name="패스 27121" d="M330.621 85.049a2.264 2.264 0 0 1-.364.447 15.668 15.668 0 0 1-4.243 2.261c-.217.081-.523-.079-.788-.128.047-.241.011-.562.154-.711a8.735 8.735 0 0 1 4.332-2.564.692.692 0 0 1 .909.7" transform="translate(-304.103 -78.297)" style="fill:#3d78ff"/>
                <path data-name="패스 27122" d="M273.88 5.338a.561.561 0 0 1-.458-.681 11.182 11.182 0 0 1 .553-3.584 2.529 2.529 0 0 1 .541-.889.9.9 0 0 1 .761-.157.735.735 0 0 1 .307.617 4.814 4.814 0 0 1-.313 1.3c-.435 1.124-.91 2.232-1.391 3.4" transform="translate(-256)" style="fill:#3d78ff"/>
                <path data-name="패스 27123" d="M313.6 25.567c-.155-.9.725-2.963 1.752-4.206.237-.287.462-.635 1.066-.406a8.047 8.047 0 0 1-.307.955 12.783 12.783 0 0 1-2.51 3.656" transform="translate(-293.288 -19.387)" style="fill:#3d78ff"/>
            </g>
        </g>
    </g>
</svg>
