<svg width="499.99999999999994" height="499.99999999999994" xmlns="http://www.w3.org/2000/svg">
 <defs>
  <linearGradient y2="1" x2="1" y1="0" x1="0" id="svg_4">
   <stop offset="0" stop-opacity="0.99609" stop-color="#81ffef"/>
   <stop offset="1" stop-opacity="0.99609" stop-color="#f067b4"/>
  </linearGradient>
 </defs>
 <g>
  <title>Layer 1</title>
  <path fill="#ffffff" id="svg_1" d="m110.293,16.914c-11.707,-17 -34.625,-21.914 -52.273,-11.207l-29.856,18.98a33.94,33.94 0 0 0 -15.418,22.938a35.543,35.543 0 0 0 3.566,23.102a33.01,33.01 0 0 0 -5.066,12.793a36.517,36.517 0 0 0 6.191,27.52c11.727,16.96 34.583,21.897 52.27,11.312l29.879,-19a34.025,34.025 0 0 0 15.355,-22.938a35.44,35.44 0 0 0 -3.586,-23.02c7.938,-12.456 7.52,-28.48 -1.062,-40.48zm-55.254,95.773a23.645,23.645 0 0 1 -25.394,-9.433c-3.461,-4.793 -4.73,-10.711 -3.73,-16.586l0.585,-2.832l0.54,-1.75l1.605,1.062c3.52,2.668 7.46,4.582 11.668,5.875l1.082,0.375l-0.122,1.067c-0.105,1.48 0.332,3.144 1.188,4.414c1.75,2.52 4.793,3.73 7.727,2.937c0.644,-0.207 1.273,-0.418 1.812,-0.754l29.754,-18.976c1.5,-0.961 2.457,-2.398 2.832,-4.106c0.328,-1.773 -0.106,-3.585 -1.066,-5.02c-1.774,-2.46 -4.793,-3.565 -7.727,-2.831c-0.645,0.226 -1.332,0.48 -1.879,0.812l-11.25,7.145c-10.644,6.328 -24.394,3.355 -31.46,-6.832a21.854,21.854 0 0 1 -3.75,-16.586a20.643,20.643 0 0 1 9.456,-13.875l29.692,-18.98c1.875,-1.168 3.894,-2.02 6.082,-2.668c9.605,-2.5 19.726,1.27 25.394,9.394a22.027,22.027 0 0 1 3.043,19.398l-0.543,1.77l-1.539,-1.062a39.399,39.399 0 0 0 -11.727,-5.875l-1.066,-0.313l0.106,-1.066c0.105,-1.563 -0.332,-3.207 -1.188,-4.48c-1.754,-2.52 -4.793,-3.583 -7.727,-2.833c-0.644,0.211 -1.273,0.418 -1.812,0.754l-29.813,19.145c-1.5,1 -2.46,2.394 -2.773,4.144c-0.312,1.707 0.106,3.582 1.066,4.957c1.708,2.524 4.81,3.586 7.688,2.832c0.687,-0.207 1.332,-0.414 1.855,-0.75l11.375,-7.254c1.856,-1.226 3.938,-2.12 6.067,-2.707c9.668,-2.52 19.75,1.274 25.394,9.438c3.461,4.793 4.793,10.707 3.832,16.52a20.487,20.487 0 0 1 -9.332,13.874l-29.754,18.939a25.82,25.82 0 0 1 -6.187,2.707l-0.004,0.01zm0,0"/>
  <rect id="svg_2" height="500" width="500" y="0" x="0" fill="url(#svg_4)"/>
  <path stroke="#ffffff" id="svg_6" d="m250,416.95652c-92.24117,0 -166.95652,-74.71535 -166.95652,-166.95652c0,-92.24117 74.71535,-166.95652 166.95652,-166.95652c92.24117,0 166.95652,74.71535 166.95652,166.95652c0,92.24117 -74.71535,166.95652 -166.95652,166.95652z" opacity="undefined" stroke-width="5" fill="none"/>
  <text font-weight="bold" xml:space="preserve" text-anchor="start" font-family="Noto Sans JP" font-size="250" stroke-width="0" id="svg_5" y="356.08696" x="215.69293" fill="#ffffff">i</text>
 </g>
</svg>