<svg xmlns="http://www.w3.org/2000/svg" width="120" height="47.2" viewBox="0 0 120 47.2">
    <defs>
        <clipPath id="f9qhi6zkfa">
            <path data-name="사각형 3071" style="fill:#0054e6" d="M0 0h120v47.2H0z"/>
        </clipPath>
    </defs>
    <g data-name="그룹 8500">
        <g data-name="그룹 8497" style="clip-path:url(#f9qhi6zkfa)">
            <path data-name="패스 13925" d="M18.108 1.909C8.109 1.909 0 10.276 0 20.6s8.109 18.684 18.108 18.684S36.217 30.917 36.217 20.6 28.11 1.909 18.108 1.909m0 28.406A9.476 9.476 0 0 1 8.893 20.6a9.476 9.476 0 0 1 9.215-9.718 9.476 9.476 0 0 1 9.216 9.718 9.476 9.476 0 0 1-9.215 9.718" transform="translate(0 1.04)" style="fill:#0054e6"/>
            <path data-name="패스 13926" d="M24.983 35.206V8.908h18.073a6.969 6.969 0 0 1 5.377 6.359l.073 19.939h-7.817V16.767h-7.6v18.439z" transform="translate(13.743 4.852)" style="fill:#0054e6"/>
            <path data-name="패스 13927" d="M41.87 3.282h8.82v30.056a5.5 5.5 0 0 1-3.441 5.074l-5.379.142z" transform="translate(23.033 1.788)" style="fill:#0054e6"/>
            <path data-name="패스 13928" d="M48.875 8.906h3.353s4.937-.141 6.845 5.672l3.413 9.967 4.46-15.639h8.794l-9.18 26.369a10.98 10.98 0 0 1-6.1 7.074h-8.888l.07-7.646 4.52-.073s1.865-.5 1-2.856z" transform="translate(26.886 4.85)" style="fill:#0054e6"/>
            <path data-name="패스 13929" d="M67.594 4.309A8.219 8.219 0 0 0 73.888 0h8.929v40.143h-8.929V9.629s-1.829 2.337-6.293 2.337z" transform="translate(37.184 .001)" style="fill:#0054e6"/>
        </g>
    </g>
</svg>
