<svg width="100" height="100" xmlns="http://www.w3.org/2000/svg">
 <g id="Layer_1">
  <title>Layer 1</title>
  <rect id="svg_1" height="100" width="100" y="0" x="0" stroke="null" fill="#0054e6"/>
  <g>
   <defs transform="translate(-0.0000038147 0) translate(16.9502 0) translate(0 36.9985)">
    <clipPath id="svg_2">
     <path fill="#fff" d="m16.95015,36.9985l66.101,0l0,26l-66.101,0l0,-26z" data-name="사각형 3071"/>
    </clipPath>
   </defs>
   <g data-name="그룹 8501">
    <g clip-path="url(#svg_2)" data-name="그룹 8497">
     <path fill="#fff" transform="translate(0 -0.284)" d="m26.92515,38.9075a10.139,10.139 0 0 0 -9.975,10.291a10.139,10.139 0 0 0 9.975,10.3a10.138,10.138 0 0 0 9.975,-10.3a10.138,10.138 0 0 0 -9.975,-10.291m0,15.647a5.22,5.22 0 0 1 -5.075,-5.356a5.22,5.22 0 0 1 5.075,-5.35a5.22,5.22 0 0 1 5.076,5.35a5.22,5.22 0 0 1 -5.076,5.353" data-name="패스 13925"/>
     <path fill="#fff" transform="translate(-3.651 -1.329)" d="m41.93315,60.3925l0,-14.486l9.955,0a3.839,3.839 0 0 1 2.962,3.5l0.04,10.983l-4.306,0l0,-10.154l-4.187,0l0,10.157l-4.464,0z" data-name="패스 13926"/>
     <path fill="#fff" transform="translate(-6.119 -0.489)" d="m58.82015,40.2805l4.858,0l0,16.556a3.027,3.027 0 0 1 -1.9,2.795l-2.963,0.078l0.005,-19.429z" data-name="패스 13927"/>
     <path fill="#fff" transform="translate(-7.142 -1.328)" d="m65.82515,45.9045l1.847,0a4.083,4.083 0 0 1 3.771,3.124l1.88,5.49l2.457,-8.614l4.844,0l-5.057,14.525a6.048,6.048 0 0 1 -3.357,3.9l-4.9,0l0.038,-4.212l2.49,-0.04s1.027,-0.275 0.552,-1.573l-4.565,-12.6z" data-name="패스 13928"/>
     <path fill="#fff" transform="translate(-9.878 0)" d="m84.54415,39.3725a4.527,4.527 0 0 0 3.467,-2.374l4.918,0l0,22.113l-4.918,0l0,-16.813a4.407,4.407 0 0 1 -3.467,1.287l0,-4.213z" data-name="패스 13929"/>
    </g>
   </g>
  </g>
 </g>

</svg>