<svg width="100" height="100" xmlns="http://www.w3.org/2000/svg">
 <g id="Layer_1">
  <title>Layer 1</title>
  <rect id="svg_1" height="100" width="100" y="0" x="0" fill="#f5f6f7"/>
  <g stroke="null">
   <g stroke="null" data-name="그룹 65830">
    <path stroke="null" fill="#ffd42a" d="m23.10412,36.99898l25.701,0l0,2.605l-25.701,0l0,-2.605z" transform="translate(28.081 14.471)" data-name="사각형 24369"/>
    <path stroke="null" fill="#22262f" transform="translate(-8.44 -7.717)" d="m40.77512,52.44698a4.487,4.487 0 0 1 -0.224,1.457a3.254,3.254 0 0 1 -0.638,1.12a2.731,2.731 0 0 1 -1.009,0.711a3.47,3.47 0 0 1 -1.338,0.246l-6.022,0l0,-2.535l5.589,0a1.261,1.261 0 0 0 0.791,-0.232a0.761,0.761 0 0 0 0.021,-1.2a1.436,1.436 0 0 0 -0.812,-0.3a1.845,1.845 0 0 1 -0.253,0.014l-1.526,0a8.751,8.751 0 0 1 -1.324,-0.084a3.465,3.465 0 0 1 -0.917,-0.26a1.87,1.87 0 0 1 -0.63,-0.465a3.458,3.458 0 0 1 -0.462,-0.7a4.088,4.088 0 0 1 -0.476,-2.014a4.324,4.324 0 0 1 0.224,-1.422a3.173,3.173 0 0 1 0.635,-1.102a2.848,2.848 0 0 1 1,-0.711a3.257,3.257 0 0 1 1.3,-0.253l6.066,0l-1.247,2.648l-4.511,-0.029q-0.953,0 -0.952,0.873a0.79,0.79 0 0 0 0.287,0.627a0.99,0.99 0 0 0 0.665,0.247l2.55,0q3.208,0 3.208,3.366" data-name="패스 22754"/>
    <path stroke="null" fill="#22262f" transform="translate(-19.681 -7.717)" d="m61.15912,44.71598l-1.247,2.634l-4.272,0l0,1.649l4.286,0l0,2.633l-4.286,0l0,1.717l4.945,0l0,2.632l-7.733,0l0,-11.265l8.307,0z" data-name="패스 22755"/>
    <path stroke="null" fill="#22262f" transform="translate(-48.001 -7.717)" d="m114.84512,44.71598l-1.247,2.634l-4.272,0l0,1.649l4.286,0l0,2.633l-4.286,0l0,1.717l4.945,0l0,2.632l-7.733,0l0,-11.265l8.307,0z" data-name="패스 22756"/>
    <path stroke="null" fill="#22262f" transform="translate(-58.054 -7.717)" d="m134.94112,55.98098l-3.012,0l-3.684,-5.646l0,5.646l-2.648,0l0,-11.265l6.024,0a2.669,2.669 0 0 1 1.253,0.3a3.214,3.214 0 0 1 1,0.81a3.938,3.938 0 0 1 0.665,1.176a4.032,4.032 0 0 1 0.245,1.4a5.382,5.382 0 0 1 -0.126,1.224a3.128,3.128 0 0 1 -0.392,0.958a2.9,2.9 0 0 1 -0.673,0.74a4.908,4.908 0 0 1 -0.953,0.57a0.207,0.207 0 0 0 -0.055,0.042a0.331,0.331 0 0 1 -0.081,0.063l2.437,3.982zm-2.676,-7.477a1.206,1.206 0 0 0 -0.308,-0.817a0.969,0.969 0 0 0 -0.757,-0.352l-2.969,0l0,2.324l3.082,0a0.649,0.649 0 0 0 0.357,-0.113a1.269,1.269 0 0 0 0.309,-0.281a1.429,1.429 0 0 0 0.209,-0.373a1.1,1.1 0 0 0 0.077,-0.387" data-name="패스 22757"/>
    <path stroke="null" fill="#22262f" transform="translate(-19.386 -23.755)" d="m62.41812,80.85698a6.889,6.889 0 0 1 -0.357,2.26a5.268,5.268 0 0 1 -1.023,1.789a4.708,4.708 0 0 1 -1.59,1.176a4.9,4.9 0 0 1 -2.059,0.423a5.146,5.146 0 0 1 -2.074,-0.409a4.628,4.628 0 0 1 -1.611,-1.155a5.31,5.31 0 0 1 -1.043,-1.774a6.661,6.661 0 0 1 -0.372,-2.281a6.586,6.586 0 0 1 0.379,-2.275a5.323,5.323 0 0 1 1.058,-1.781a4.811,4.811 0 0 1 1.632,-1.169a5.092,5.092 0 0 1 2.087,-0.422a4.817,4.817 0 0 1 2.038,0.422a4.577,4.577 0 0 1 1.569,1.176a5.4,5.4 0 0 1 1.009,1.782a6.782,6.782 0 0 1 0.357,2.239m-2.466,0.028a4.005,4.005 0 0 0 -0.182,-1.218a3.076,3.076 0 0 0 -0.519,-0.992a2.537,2.537 0 0 0 -0.8,-0.669a2.14,2.14 0 0 0 -1.022,-0.246a2.32,2.32 0 0 0 -1.044,0.232a2.278,2.278 0 0 0 -0.8,0.655a3.025,3.025 0 0 0 -0.5,1.007a4.418,4.418 0 0 0 -0.175,1.274a3.957,3.957 0 0 0 0.182,1.225a3.069,3.069 0 0 0 0.512,0.979a2.424,2.424 0 0 0 0.784,0.654a2.113,2.113 0 0 0 1,0.24a2.218,2.218 0 0 0 1.037,-0.247a2.5,2.5 0 0 0 0.812,-0.669a3.184,3.184 0 0 0 0.525,-0.993a3.883,3.883 0 0 0 0.189,-1.232" data-name="패스 22758"/>
    <path stroke="null" fill="#22262f" transform="translate(-30.939 -23.755)" d="m83.60412,75.23798l-1.289,2.605l-2.451,0l0,8.661l-2.676,0l0,-8.661l-3,0l0,-2.605l9.416,0z" data-name="패스 22759"/>
    <path stroke="null" fill="#22262f" transform="translate(-29.735 -7.717)" d="m74.71412,53.33398l0,-8.618l-2.8,0l0,11.265l6.5,0l1.241,-2.647l-4.941,0z" data-name="패스 22760"/>
    <path stroke="null" fill="#22262f" transform="translate(-38.866 -7.717)" d="m92.02712,53.33398l0,-8.618l-2.8,0l0,11.265l6.5,0l1.241,-2.647l-4.941,0z" data-name="패스 22761"/>
    <path stroke="null" fill="#22262f" transform="translate(-8.44 -23.721)" d="m40.71812,83.41398a3.35,3.35 0 0 1 -0.224,1.26a2.819,2.819 0 0 1 -0.617,0.951a2.644,2.644 0 0 1 -0.958,0.606a3.474,3.474 0 0 1 -1.228,0.211l-6.147,0l0,-11.269l5.858,0a4.716,4.716 0 0 1 0.99,0.12a3.762,3.762 0 0 1 0.942,0.308a2.175,2.175 0 0 1 0.7,0.59l0.016,0.021q0.087,0.109 0.163,0.225a3,3 0 0 1 0.339,0.7a2.349,2.349 0 0 1 0.122,0.746a3.993,3.993 0 0 1 -0.346,1.684a2.225,2.225 0 0 1 -1,1.091a3.3,3.3 0 0 1 1.384,2.748m-2.508,-4.782a0.988,0.988 0 0 0 -0.237,-0.641a0.723,0.723 0 0 0 -0.577,-0.288l-3.23,0l0,1.788l3.46,0a0.37,0.37 0 0 0 0.231,-0.084a0.756,0.756 0 0 0 0.183,-0.212a1.3,1.3 0 0 0 0.122,-0.282a0.987,0.987 0 0 0 0.047,-0.282m0,4.382a0.933,0.933 0 0 0 -0.061,-0.331a1.036,1.036 0 0 0 -0.162,-0.289a0.969,0.969 0 0 0 -0.238,-0.211a0.508,0.508 0 0 0 -0.272,-0.085l-2.045,0l-1.262,-1.99l0,3.817l3.311,0a0.506,0.506 0 0 0 0.272,-0.084a0.96,0.96 0 0 0 0.238,-0.211a1.052,1.052 0 0 0 0.162,-0.289a0.93,0.93 0 0 0 0.061,-0.331" data-name="패스 22762"/>
    <path stroke="null" fill="#22262f" transform="translate(-8.44 -7.717)" d="m40.77512,52.44698a4.487,4.487 0 0 1 -0.224,1.457a3.254,3.254 0 0 1 -0.638,1.12a2.731,2.731 0 0 1 -1.009,0.711a3.47,3.47 0 0 1 -1.338,0.246l-6.022,0l0,-2.535l5.589,0a1.261,1.261 0 0 0 0.791,-0.232a0.761,0.761 0 0 0 0.021,-1.2a1.436,1.436 0 0 0 -0.812,-0.3a1.845,1.845 0 0 1 -0.253,0.014l-1.526,0a8.751,8.751 0 0 1 -1.324,-0.084a3.465,3.465 0 0 1 -0.917,-0.26a1.87,1.87 0 0 1 -0.63,-0.465a3.458,3.458 0 0 1 -0.462,-0.7a4.088,4.088 0 0 1 -0.476,-2.014a4.324,4.324 0 0 1 0.224,-1.422a3.173,3.173 0 0 1 0.635,-1.102a2.848,2.848 0 0 1 1,-0.711a3.257,3.257 0 0 1 1.3,-0.253l6.066,0l-1.247,2.648l-4.511,-0.029q-0.953,0 -0.952,0.873a0.79,0.79 0 0 0 0.287,0.627a0.99,0.99 0 0 0 0.665,0.247l2.55,0q3.208,0 3.208,3.366" data-name="패스 22763"/>
    <path stroke="null" fill="#22262f" transform="translate(-19.681 -7.717)" d="m61.15912,44.71598l-1.247,2.634l-4.272,0l0,1.649l4.286,0l0,2.633l-4.286,0l0,1.717l4.945,0l0,2.632l-7.733,0l0,-11.265l8.307,0z" data-name="패스 22764"/>
    <path stroke="null" fill="#22262f" transform="translate(-48.001 -7.717)" d="m114.84512,44.71598l-1.247,2.634l-4.272,0l0,1.649l4.286,0l0,2.633l-4.286,0l0,1.717l4.945,0l0,2.632l-7.733,0l0,-11.265l8.307,0z" data-name="패스 22765"/>
    <path stroke="null" fill="#22262f" transform="translate(-58.054 -7.717)" d="m134.94112,55.98098l-3.012,0l-3.684,-5.646l0,5.646l-2.648,0l0,-11.265l6.024,0a2.669,2.669 0 0 1 1.253,0.3a3.214,3.214 0 0 1 1,0.81a3.938,3.938 0 0 1 0.665,1.176a4.032,4.032 0 0 1 0.245,1.4a5.382,5.382 0 0 1 -0.126,1.224a3.128,3.128 0 0 1 -0.392,0.958a2.9,2.9 0 0 1 -0.673,0.74a4.908,4.908 0 0 1 -0.953,0.57a0.207,0.207 0 0 0 -0.055,0.042a0.331,0.331 0 0 1 -0.081,0.063l2.437,3.982zm-2.676,-7.477a1.206,1.206 0 0 0 -0.308,-0.817a0.969,0.969 0 0 0 -0.757,-0.352l-2.969,0l0,2.324l3.082,0a0.649,0.649 0 0 0 0.357,-0.113a1.269,1.269 0 0 0 0.309,-0.281a1.429,1.429 0 0 0 0.209,-0.373a1.1,1.1 0 0 0 0.077,-0.387" data-name="패스 22766"/>
    <path stroke="null" fill="#22262f" transform="translate(-19.386 -23.755)" d="m62.41812,80.85698a6.889,6.889 0 0 1 -0.357,2.26a5.268,5.268 0 0 1 -1.023,1.789a4.708,4.708 0 0 1 -1.59,1.176a4.9,4.9 0 0 1 -2.059,0.423a5.146,5.146 0 0 1 -2.074,-0.409a4.628,4.628 0 0 1 -1.611,-1.155a5.31,5.31 0 0 1 -1.043,-1.774a6.661,6.661 0 0 1 -0.372,-2.281a6.586,6.586 0 0 1 0.379,-2.275a5.323,5.323 0 0 1 1.058,-1.781a4.811,4.811 0 0 1 1.632,-1.169a5.092,5.092 0 0 1 2.087,-0.422a4.817,4.817 0 0 1 2.038,0.422a4.577,4.577 0 0 1 1.569,1.176a5.4,5.4 0 0 1 1.009,1.782a6.782,6.782 0 0 1 0.357,2.239m-2.466,0.028a4.005,4.005 0 0 0 -0.182,-1.218a3.076,3.076 0 0 0 -0.519,-0.992a2.537,2.537 0 0 0 -0.8,-0.669a2.14,2.14 0 0 0 -1.022,-0.246a2.32,2.32 0 0 0 -1.044,0.232a2.278,2.278 0 0 0 -0.8,0.655a3.025,3.025 0 0 0 -0.5,1.007a4.418,4.418 0 0 0 -0.175,1.274a3.957,3.957 0 0 0 0.182,1.225a3.069,3.069 0 0 0 0.512,0.979a2.424,2.424 0 0 0 0.784,0.654a2.113,2.113 0 0 0 1,0.24a2.218,2.218 0 0 0 1.037,-0.247a2.5,2.5 0 0 0 0.812,-0.669a3.184,3.184 0 0 0 0.525,-0.993a3.883,3.883 0 0 0 0.189,-1.232" data-name="패스 22767"/>
    <path stroke="null" fill="#22262f" transform="translate(-30.939 -23.755)" d="m83.60412,75.23798l-1.289,2.605l-2.451,0l0,8.661l-2.676,0l0,-8.661l-3,0l0,-2.605l9.416,0z" data-name="패스 22768"/>
    <path stroke="null" fill="#22262f" transform="translate(-29.735 -7.717)" d="m74.71412,53.33398l0,-8.618l-2.8,0l0,11.265l6.5,0l1.241,-2.647l-4.941,0z" data-name="패스 22769"/>
    <path stroke="null" fill="#22262f" transform="translate(-38.866 -7.717)" d="m92.02712,53.33398l0,-8.618l-2.8,0l0,11.265l6.5,0l1.241,-2.647l-4.941,0z" data-name="패스 22770"/>
    <path stroke="null" fill="#22262f" transform="translate(-8.44 -23.721)" d="m40.71812,83.41398a3.35,3.35 0 0 1 -0.224,1.26a2.819,2.819 0 0 1 -0.617,0.951a2.644,2.644 0 0 1 -0.958,0.606a3.474,3.474 0 0 1 -1.228,0.211l-6.147,0l0,-11.269l5.858,0a4.716,4.716 0 0 1 0.99,0.12a3.762,3.762 0 0 1 0.942,0.308a2.175,2.175 0 0 1 0.7,0.59l0.016,0.021q0.087,0.109 0.163,0.225a3,3 0 0 1 0.339,0.7a2.349,2.349 0 0 1 0.122,0.746a3.993,3.993 0 0 1 -0.346,1.684a2.225,2.225 0 0 1 -1,1.091a3.3,3.3 0 0 1 1.384,2.748m-2.508,-4.782a0.988,0.988 0 0 0 -0.237,-0.641a0.723,0.723 0 0 0 -0.577,-0.288l-3.23,0l0,1.788l3.46,0a0.37,0.37 0 0 0 0.231,-0.084a0.756,0.756 0 0 0 0.183,-0.212a1.3,1.3 0 0 0 0.122,-0.282a0.987,0.987 0 0 0 0.047,-0.282m0,4.382a0.933,0.933 0 0 0 -0.061,-0.331a1.036,1.036 0 0 0 -0.162,-0.289a0.969,0.969 0 0 0 -0.238,-0.211a0.508,0.508 0 0 0 -0.272,-0.085l-2.045,0l-1.262,-1.99l0,3.817l3.311,0a0.506,0.506 0 0 0 0.272,-0.084a0.96,0.96 0 0 0 0.238,-0.211a1.052,1.052 0 0 0 0.162,-0.289a0.93,0.93 0 0 0 0.061,-0.331" data-name="패스 22771"/>
    <path stroke="null" fill="#22262f" transform="translate(-41.999 -28.835)" d="m98.54312,85.29898a0.345,0.345 0 0 1 0.07,0.2a0.335,0.335 0 0 1 -0.039,0.2a0.207,0.207 0 0 1 -0.266,0.127a2.5,2.5 0 0 0 -0.691,-0.064a1.308,1.308 0 0 0 -0.722,0.284a1.745,1.745 0 0 0 -0.565,0.78a2.851,2.851 0 0 0 -0.2,1.065a1.621,1.621 0 0 0 0.258,0.923a1.5,1.5 0 0 0 0.667,0.559a1.579,1.579 0 0 0 0.565,0.127a3.631,3.631 0 0 0 0.635,-0.025a4.233,4.233 0 0 0 0.635,-0.125c0.21,-0.059 0.408,-0.124 0.6,-0.2a0.217,0.217 0 0 1 0.18,0.016a0.246,0.246 0 0 1 0.117,0.126a0.4,0.4 0 0 1 -0.078,0.41a1.737,1.737 0 0 1 -0.5,0.363a3.363,3.363 0 0 1 -0.691,0.252a3.439,3.439 0 0 1 -0.769,0.1a2.551,2.551 0 0 1 -0.737,-0.088a2.415,2.415 0 0 1 -0.825,-0.37a2.281,2.281 0 0 1 -0.556,-0.567a2.459,2.459 0 0 1 -0.329,-0.7a3.052,3.052 0 0 1 -0.126,-0.764a3.354,3.354 0 0 1 0.369,-1.7a2.544,2.544 0 0 1 1.122,-1.119a1.926,1.926 0 0 1 1.075,-0.213a1.107,1.107 0 0 1 0.808,0.4" data-name="패스 22772"/>
    <path stroke="null" fill="#22262f" transform="translate(-47.312 -26.801)" d="m106.29512,89.04898a2.118,2.118 0 0 1 -0.2,0.48a0.463,0.463 0 0 1 -0.266,0.245a0.423,0.423 0 0 1 -0.455,-0.1a0.531,0.531 0 0 1 -0.125,-0.442a15.527,15.527 0 0 1 0.408,-2q0.282,-1.049 0.659,-2.1t0.824,-2.034a19.539,19.539 0 0 1 0.918,-1.79a0.288,0.288 0 0 1 0.361,-0.142a0.852,0.852 0 0 1 0.188,-0.111a0.573,0.573 0 0 1 0.22,-0.047a0.347,0.347 0 0 1 0.1,0.017a0.253,0.253 0 0 1 0.118,0.094a1.932,1.932 0 0 1 0.149,0.229q0.087,0.15 0.212,0.433q0.219,0.805 0.51,1.656t0.6,1.7a0.662,0.662 0 0 1 0.086,-0.024a0.651,0.651 0 0 0 0.087,-0.024a1.658,1.658 0 0 1 0.392,0.016a0.353,0.353 0 0 1 0.3,0.221a0.4,0.4 0 0 1 -0.031,0.41a1.314,1.314 0 0 1 -0.455,0.347q0.2,0.5 0.408,0.985t0.424,0.939l0.047,0.245a2.387,2.387 0 0 1 0.039,0.331a1.154,1.154 0 0 1 -0.024,0.308a0.255,0.255 0 0 1 -0.125,0.188a0.248,0.248 0 0 1 -0.228,-0.016a1.1,1.1 0 0 1 -0.228,-0.165a1.574,1.574 0 0 1 -0.2,-0.222a1.511,1.511 0 0 1 -0.133,-0.213q-0.266,-0.52 -0.51,-1.049t-0.461,-1.046q-0.659,0.126 -1.436,0.221t-1.53,0.126l-0.337,1.175q-0.164,0.575 -0.306,1.16m2.228,-6.625a34.449,34.449 0 0 0 -1.255,3.249a13.666,13.666 0 0 0 2.244,-0.268a29.084,29.084 0 0 1 -0.988,-2.981" data-name="패스 22773"/>
    <path stroke="null" fill="#22262f" transform="translate(-55.23 -26.587)" d="m124.43612,81.82898a0.432,0.432 0 0 1 -0.227,0.1a0.467,0.467 0 0 1 -0.337,-0.071q-0.126,-0.077 -0.3,-0.161a4.694,4.694 0 0 0 -0.377,-0.161a3.787,3.787 0 0 0 -0.408,-0.129a1.618,1.618 0 0 0 -0.393,-0.052a1.5,1.5 0 0 0 -0.494,0.09a1.317,1.317 0 0 0 -0.447,0.257q-0.361,0.323 -0.259,0.625a1.118,1.118 0 0 0 0.541,0.56c0.188,0.112 0.392,0.226 0.612,0.342l0.651,0.342l0.612,0.322c0.214,0.112 0.364,0.194 0.51,0.27a5.216,5.216 0 0 1 0.533,0.336a2.388,2.388 0 0 1 0.44,0.406a1.811,1.811 0 0 1 0.3,0.509a1.781,1.781 0 0 1 0.109,0.645a1.659,1.659 0 0 1 -0.682,1.128a2.979,2.979 0 0 1 -1.326,0.534a3.427,3.427 0 0 1 -1.295,-0.039a2.3,2.3 0 0 1 -1.074,-0.541a0.847,0.847 0 0 1 -0.189,-0.284c-0.052,-0.12 -0.057,-0.207 -0.016,-0.258a0.546,0.546 0 0 1 0.33,-0.161a0.567,0.567 0 0 1 0.361,0.019a2.356,2.356 0 0 0 0.847,0.393a2.33,2.33 0 0 0 1.02,0.019a1.4,1.4 0 0 0 0.659,-0.29a0.9,0.9 0 0 0 0.314,-0.483a0.769,0.769 0 0 0 -0.086,-0.587a1.5,1.5 0 0 0 -0.589,-0.548a14.208,14.208 0 0 0 -1.372,-0.748q-0.73,-0.347 -1.483,-0.8a1.685,1.685 0 0 1 -0.525,-0.567a1.284,1.284 0 0 1 -0.165,-0.606a1.167,1.167 0 0 1 0.157,-0.586a1.739,1.739 0 0 1 0.439,-0.5a2.429,2.429 0 0 1 0.659,-0.367a2.77,2.77 0 0 1 0.832,-0.168a2.846,2.846 0 0 1 1.208,0.213a2.966,2.966 0 0 1 0.941,0.587a0.236,0.236 0 0 1 0.071,0.193a0.362,0.362 0 0 1 -0.1,0.219" data-name="패스 22774"/>
    <path stroke="null" fill="#22262f" transform="translate(-61.853 -28.151)" d="m138.24212,84.10798q0.219,1.277 0.33,2.546t0.172,2.532a0.464,0.464 0 0 1 -0.03,0.244a0.737,0.737 0 0 1 -0.118,0.182a0.807,0.807 0 0 1 -0.142,0.126a0.23,0.23 0 0 1 -0.118,0.047a0.478,0.478 0 0 1 -0.337,-0.165a0.714,0.714 0 0 1 -0.2,-0.434l-0.094,-1.2q-0.047,-0.6 -0.11,-1.2q-1.647,0.457 -3.483,0.8l0.126,0.694c0.042,0.231 0.089,0.463 0.141,0.694a1.172,1.172 0 0 1 0.024,0.2a1.458,1.458 0 0 1 -0.016,0.3a0.9,0.9 0 0 1 -0.093,0.292a0.438,0.438 0 0 1 -0.213,0.2a0.394,0.394 0 0 1 -0.266,-0.08a0.526,0.526 0 0 1 -0.188,-0.19a9.3,9.3 0 0 1 -0.353,-1.167q-0.165,-0.678 -0.282,-1.427t-0.166,-1.522a14.194,14.194 0 0 1 -0.015,-1.482a0.458,0.458 0 0 1 0.181,-0.339a0.489,0.489 0 0 1 0.274,-0.1a0.343,0.343 0 0 1 0.243,0.1a0.726,0.726 0 0 1 0.165,0.235a1.578,1.578 0 0 1 0.094,0.284a1.174,1.174 0 0 1 0.031,0.237c0.01,0.337 0.026,0.667 0.047,0.994s0.057,0.652 0.11,0.978q0.8,-0.111 1.742,-0.307t1.772,-0.451c-0.021,-0.241 -0.047,-0.486 -0.079,-0.733l-0.094,-0.733a0.735,0.735 0 0 1 0.165,-0.474a0.451,0.451 0 0 1 0.337,-0.2a0.384,0.384 0 0 1 0.258,0.126a0.684,0.684 0 0 1 0.181,0.394" data-name="패스 22775"/>
   </g>
  </g>
 </g>

</svg>