<svg width="100" height="100" xmlns="http://www.w3.org/2000/svg">
 <g id="Layer_1">
  <title>Layer 1</title>
  <g stroke="null" id="svg_1">
   <path stroke="null" id="svg_2" data-name="패스 24004" d="m63.87562,42.12075l3.01965,0l0,3.01965l-3.01965,-3.01965z" fill="#212121"/>
   <path stroke="null" id="svg_3" data-name="패스 24005" d="m80.79553,58.21103l-3.01965,0l0,-3.02127l3.01965,3.02127z" fill="#212121"/>
   <g stroke="null" id="svg_4" data-name="그룹 63986">
    <path stroke="null" id="svg_5" data-name="패스 24006" d="m25.61538,40.62466l0,4.58926a2.8702,2.8702 0 0 0 -0.82721,-0.17772a1.3733,1.3733 0 0 0 -1.36361,1.3733a2.59958,2.59958 0 0 0 0.43865,1.22709l0.37725,0.63737a6.52077,6.52077 0 0 1 1.02271,3.32743a5.26622,5.26622 0 0 1 -1.72067,3.97612a5.89713,5.89713 0 0 1 -4.20877,1.62454a5.64347,5.64347 0 0 1 -2.36208,-0.53155l0,-4.65954a2.47356,2.47356 0 0 0 1.25375,0.43623a1.62938,1.62938 0 0 0 1.07845,-0.35948a1.13096,1.13096 0 0 0 0.43057,-0.90234a4.48666,4.48666 0 0 0 -0.69392,-1.54618a7.4118,7.4118 0 0 1 -1.10672,-3.77659a5.30903,5.30903 0 0 1 1.67381,-3.9228a5.50129,5.50129 0 0 1 3.99874,-1.64554a6.28731,6.28731 0 0 1 2.00906,0.3304z" fill="#212121"/>
    <path stroke="null" id="svg_6" data-name="패스 24007" d="m32.73959,44.51596a6.02072,6.02072 0 0 1 4.41558,1.84427a6.01507,6.01507 0 0 1 1.84427,4.40911a5.99487,5.99487 0 0 1 -1.858,4.44304a6.46261,6.46261 0 0 1 -9.0113,-0.01131a5.98276,5.98276 0 0 1 -1.86123,-4.43173a5.93913,5.93913 0 0 1 1.87819,-4.43577a6.3592,6.3592 0 0 1 4.59249,-1.81761zm-0.10663,3.51243a2.53819,2.53819 0 0 0 -1.89031,0.80379a2.79104,2.79104 0 0 0 0,3.87756a2.6327,2.6327 0 0 0 3.78224,0.00485a2.81931,2.81931 0 0 0 0,-3.88726a2.54142,2.54142 0 0 0 -1.89193,-0.79894z" fill="#212121"/>
    <path stroke="null" id="svg_7" data-name="패스 24008" d="m43.20094,48.23761l0,8.49833l-3.60371,0l0,-11.92028l4.69589,0a7.61537,7.61537 0 0 1 4.84211,1.37896a5.41889,5.41889 0 0 1 2.07934,4.48101a5.86643,5.86643 0 0 1 -1.77722,4.41881a6.31477,6.31477 0 0 1 -4.57149,1.71178c-0.22054,0 -0.5784,-0.0105 -1.07602,-0.03393l0,-3.50273l0.5776,0q3.15052,0 3.15052,-2.59474q0,-2.43802 -3.09963,-2.43721l-1.21739,0z" fill="#212121"/>
    <path stroke="null" id="svg_8" data-name="패스 24009" d="m58.98747,49.45339l0,2.65613l-2.35158,0a1.2182,1.2182 0 0 0 -0.67857,0.13975a0.53236,0.53236 0 0 0 -0.19953,0.47096c0,0.25204 0.06543,0.41603 0.20357,0.49439a1.91132,1.91132 0 0 0 0.83368,0.11875l2.42348,0l0,3.40499l-2.82739,0a4.45758,4.45758 0 0 1 -3.0552,-0.93869a3.43811,3.43811 0 0 1 -1.05502,-2.71187l0,-4.67408a3.4785,3.4785 0 0 1 0.99766,-2.65613a3.9325,3.9325 0 0 1 2.80558,-0.94031l3.13356,0l0,3.42357l-2.29826,0q-0.93223,0 -0.93223,0.59375a0.52347,0.52347 0 0 0 0.22134,0.4847a1.64473,1.64473 0 0 0 0.79005,0.1341l1.98887,0z" fill="#212121"/>
    <g stroke="null" id="svg_9" data-name="그룹 63982">
     <path stroke="null" id="svg_10" data-name="패스 24010" d="m83.02755,49.90254a10.45407,10.45407 0 0 0 -10.51385,-10.36683a10.37571,10.37571 0 0 0 -7.47158,3.10043l1.20204,1.2182a8.79965,8.79965 0 0 1 15.05949,6.04819a8.60577,8.60577 0 0 1 -2.82739,6.35436l1.20043,1.2182a10.28201,10.28201 0 0 0 3.35086,-7.57256z" fill="#212121"/>
     <path stroke="null" id="svg_11" data-name="패스 24011" d="m77.42609,57.12773a8.81176,8.81176 0 0 1 -13.69911,-7.18399a8.56295,8.56295 0 0 1 2.51315,-6.04658l-1.20124,-1.2182a10.24888,10.24888 0 0 0 -3.03823,7.26478a10.45246,10.45246 0 0 0 10.51224,10.36521a10.31109,10.31109 0 0 0 7.15976,-2.79427l-1.20043,-1.2182a8.79237,8.79237 0 0 1 -1.04613,0.83125z" fill="#212121"/>
    </g>
    <g stroke="null" id="svg_12" data-name="그룹 63984">
     <g stroke="null" id="svg_13" data-name="그룹 63983">
      <path stroke="null" id="svg_14" data-name="패스 24012" d="m74.27395,57.2376l-2.89606,0l0,-11.70297l-1.99856,1.59707l-0.00727,-2.8694l1.99371,-1.59707l2.90171,0l0.00646,14.57237z" fill="#212121"/>
     </g>
    </g>
   </g>
   <path stroke="null" id="svg_15" data-name="패스 24025" d="m25.61538,40.77896l0,4.58926a2.88717,2.88717 0 0 0 -0.82721,-0.17772a1.3733,1.3733 0 0 0 -1.36361,1.3733a2.60281,2.60281 0 0 0 0.43865,1.2279l0.37887,0.63334a6.52481,6.52481 0 0 1 1.02271,3.32743a5.26945,5.26945 0 0 1 -1.72067,3.97693a5.90278,5.90278 0 0 1 -4.21039,1.63019a5.65478,5.65478 0 0 1 -2.36208,-0.53397l0,-4.65954a2.47841,2.47841 0 0 0 1.25375,0.43623a1.62938,1.62938 0 0 0 1.07845,-0.35948a1.13096,1.13096 0 0 0 0.43057,-0.90234a4.48666,4.48666 0 0 0 -0.69392,-1.54618a7.41019,7.41019 0 0 1 -1.10672,-3.77578a5.30903,5.30903 0 0 1 1.67381,-3.92684a5.5021,5.5021 0 0 1 3.99874,-1.64635a6.30104,6.30104 0 0 1 2.00906,0.33363z" fill="#212121"/>
   <path stroke="null" id="svg_16" data-name="패스 24026" d="m32.73959,44.66944a6.02153,6.02153 0 0 1 4.41558,1.84346a6.01749,6.01749 0 0 1 1.84427,4.40911a5.99568,5.99568 0 0 1 -1.858,4.44304a6.46261,6.46261 0 0 1 -9.0113,-0.0105a5.98518,5.98518 0 0 1 -1.86123,-4.43173a5.93994,5.93994 0 0 1 1.87819,-4.43658a6.36001,6.36001 0 0 1 4.59249,-1.8168zm-0.10663,3.51162a2.53657,2.53657 0 0 0 -1.89031,0.80783a2.79104,2.79104 0 0 0 0,3.87756a2.6327,2.6327 0 0 0 3.78224,0a2.81931,2.81931 0 0 0 0,-3.88726a2.54304,2.54304 0 0 0 -1.89193,-0.79813z" fill="#212121"/>
   <path stroke="null" id="svg_17" data-name="패스 24027" d="m43.20175,48.39029l0,8.49913l-3.60371,0l0,-11.92189l4.69589,0a7.61537,7.61537 0 0 1 4.84211,1.37977a5.4197,5.4197 0 0 1 2.07934,4.48101a5.86643,5.86643 0 0 1 -1.77722,4.41881a6.31477,6.31477 0 0 1 -4.57149,1.71178c-0.22054,0 -0.5784,-0.0105 -1.07602,-0.03393l0,-3.50192l0.5776,0q3.15052,0 3.15052,-2.59474q0,-2.43721 -3.09963,-2.43721l-1.21739,-0.00081z" fill="#212121"/>
   <path stroke="null" id="svg_18" data-name="패스 24028" d="m58.98747,49.60687l0,2.65613l-2.35158,0a1.21174,1.21174 0 0 0 -0.67857,0.13975a0.53236,0.53236 0 0 0 -0.19953,0.47096c0,0.25204 0.06543,0.41603 0.20357,0.49439a1.91293,1.91293 0 0 0 0.83368,0.11794l2.42348,0l0,3.40579l-2.82739,0a4.45758,4.45758 0 0 1 -3.0552,-0.93869a3.43811,3.43811 0 0 1 -1.05502,-2.71187l0,-4.67408a3.47365,3.47365 0 0 1 0.99766,-2.65532a3.9325,3.9325 0 0 1 2.80962,-0.94273l3.13356,0l0,3.42276l-2.3023,0q-0.93223,0 -0.93223,0.59537a0.52105,0.52105 0 0 0 0.22134,0.4847a1.63746,1.63746 0 0 0 0.79005,0.13491l1.98887,0z" fill="#212121"/>
   <g stroke="null" id="svg_19" data-name="그룹 63988">
    <path stroke="null" id="svg_20" data-name="패스 24029" d="m83.02836,50.05764a10.45407,10.45407 0 0 0 -10.51385,-10.36683a10.37975,10.37975 0 0 0 -7.47158,3.09963l1.20204,1.21901a8.79965,8.79965 0 0 1 15.05949,6.04819a8.60738,8.60738 0 0 1 -2.82739,6.35516l1.20043,1.2182a10.28201,10.28201 0 0 0 3.35086,-7.57337z" fill="#212121"/>
    <path stroke="null" id="svg_21" data-name="패스 24030" d="m77.4269,57.28364a8.81176,8.81176 0 0 1 -13.69911,-7.18399a8.56295,8.56295 0 0 1 2.51315,-6.04658l-1.20124,-1.21901a10.25131,10.25131 0 0 0 -3.03823,7.26558a10.45246,10.45246 0 0 0 10.51224,10.3644a10.31109,10.31109 0 0 0 7.15976,-2.79427l-1.19962,-1.21659a8.78834,8.78834 0 0 1 -1.04694,0.83044z" fill="#212121"/>
   </g>
   <path stroke="null" id="svg_22" data-name="패스 24031" d="m63.87562,42.27586l3.01965,0l0,3.01965l-3.01965,-3.01965z" fill="#212121"/>
   <path stroke="null" id="svg_23" data-name="패스 24032" d="m80.79553,58.36532l-3.01965,0l0,-3.02127l3.01965,3.02127z" fill="#212121"/>
   <g stroke="null" id="svg_24" data-name="그룹 63990">
    <g stroke="null" id="svg_25" data-name="그룹 63989">
     <path stroke="null" id="svg_26" data-name="패스 24033" d="m74.27395,57.3927l-2.89606,0l0,-11.70297l-1.99856,1.59626l-0.00727,-2.8694l1.99371,-1.59707l2.90171,0l0.00646,14.57318z" fill="#212121"/>
    </g>
   </g>
  </g>
 </g>

</svg>